Coordinates
version=1
nRows=16
nColumns=36
inDegrees=yes

Units are S.I. units (second, meters, Newtons, ...)
If the header above contains a line with 'inDegrees', this indicates whether rotational values are in degrees (yes) or radians (no).

endheader
time	pelvis_tilt	pelvis_list	pelvis_rotation	pelvis_tx	pelvis_ty	pelvis_tz	hip_flexion_r	hip_adduction_r	hip_rotation_r	knee_angle_r	knee_angle_r_beta	ankle_angle_r	subtalar_angle_r	mtp_angle_r	hip_flexion_l	hip_adduction_l	hip_rotation_l	knee_angle_l	knee_angle_l_beta	ankle_angle_l	subtalar_angle_l	mtp_angle_l	lumbar_extension	lumbar_bending	lumbar_rotation	arm_flex_r	arm_add_r	arm_rot_r	elbow_flex_r	pro_sup_r	arm_flex_l	arm_add_l	arm_rot_l	elbow_flex_l	pro_sup_l
      2.50000000	     -3.17645329	     -1.37028463	      3.53909638	      0.79249449	      0.89285234	      0.02198985	      3.41629876	     -8.76771492	    -10.15540522	      5.35483361	      0.09345948	      9.68196228	     -6.96911438	     -7.49999987	      4.36233351	    -11.49248301	     -4.70983562	      9.07625893	      0.15841060	      6.01259768	     -9.80826024	     -7.49999987	     -2.65029509	      3.55160854	     -3.58553864	     34.65223822	      7.84103900	     67.33133053	    117.29689957	     98.58445627	     40.75521203	      1.29812281	     63.93876765	    120.98292889	    106.63575787
      2.51666670	     -3.21011589	     -1.36486657	      3.49263443	      0.79162166	      0.89263678	      0.02177828	      3.48466887	     -8.77922026	    -10.22962454	      5.36444545	      0.09362724	      9.69546448	     -6.77337320	     -7.49999987	      4.43172836	    -11.46589922	     -4.80211455	      9.08061983	      0.15848671	      5.98765999	     -9.83476443	     -7.49999987	     -2.58308192	      3.55370608	     -3.70557942	     34.51516075	      8.17090619	     67.36328874	    117.23817462	    100.73960778	     40.82833259	      1.29654988	     63.73657224	    121.06346358	    109.04999690
      2.53333330	     -3.09933510	     -1.36765209	      3.49724567	      0.79264256	      0.89290410	      0.02199676	      3.31125351	     -8.76924283	    -10.42404358	      5.24779788	      0.09159135	      9.66357243	     -6.59241072	     -7.49999987	      4.27207491	    -11.44776440	     -4.81220021	      8.97653600	      0.15667011	      5.98111409	     -9.83409717	     -7.49999987	     -2.60719682	      3.56163146	     -3.68347243	     34.24118778	      8.31263752	     67.50857235	    117.32121342	     97.45438094	     40.61960633	      1.23555733	     63.75059460	    121.12835709	    106.03562110
      2.55000000	     -3.16595211	     -1.38709816	      3.54569603	      0.79146029	      0.89292153	      0.02154462	      3.39459343	     -8.76588543	    -10.57099469	      5.26194045	      0.09183819	      9.65594372	     -6.50700098	     -7.49999987	      4.38409759	    -11.44537452	     -4.80342349	      8.97082931	      0.15657051	      5.86185251	     -9.95226123	     -7.49999987	     -2.57127974	      3.60348419	     -3.64625312	     34.04026957	      8.17660874	     67.15823358	    117.15690421	    100.07060980	     40.34016603	      1.19551873	     63.61294602	    121.31318701	    108.95526481
      2.56666670	     -3.15110752	     -1.38416482	      3.54780183	      0.79247102	      0.89295840	      0.02191642	      3.31678652	     -8.75705040	    -10.50893690	      5.19807553	      0.09072353	      9.56352084	     -6.61579984	     -7.49999987	      4.40201548	    -11.44243982	     -4.94987644	      8.96293337	      0.15643270	      5.84337258	     -9.97058858	     -7.49999987	     -2.57853296	      3.57313020	     -3.71638962	     33.96582955	      8.31206472	     67.17128062	    117.21843201	    100.65181710	     40.42094145	      1.17129549	     63.54620848	    121.25226637	    108.99128044
      2.58333330	     -3.15230441	     -1.37686078	      3.56202188	      0.79135749	      0.89280199	      0.02156465	      3.29126744	     -8.75218337	    -10.52373774	      5.17408555	      0.09030483	      9.46944123	     -6.67035192	     -7.49999987	      4.42694371	    -11.41177783	     -5.02662459	      8.92617579	      0.15579116	      5.87621503	     -9.99565352	     -7.49999987	     -2.56196813	      3.54367236	     -3.71332741	     33.92262875	      8.34563771	     67.38158370	    117.37586633	     98.07908215	     40.29737642	      1.22929840	     64.03095437	    121.31689506	    105.98342176
      2.60000000	     -3.21348658	     -1.40763137	      3.67213855	      0.78588268	      0.89491118	      0.02460032	      3.34730972	     -8.68970969	    -10.53140798	      5.17275014	      0.09028152	      9.46100848	     -6.67537438	     -7.49999987	      4.60163328	    -11.45168687	     -5.08593035	      8.87982126	      0.15498212	      5.87110399	    -10.01890822	     -7.49999987	     -2.76198116	      3.52240536	     -3.72672051	     34.00023906	      8.27735497	     67.32527336	    117.27134213	     98.09897713	     40.30883346	      1.21160210	     64.07134422	    121.28817467	    106.01101720
      2.61666670	     -3.19263424	     -1.47929318	      3.76736834	      0.78462997	      0.89476180	      0.02413538	      3.38133381	     -8.58093139	    -10.54723647	      5.22672379	      0.09122354	      9.32085320	     -6.86752723	     -7.49999987	      4.76993759	    -11.54553275	     -5.13983214	      8.99372053	      0.15697004	      5.82894396	    -10.02422564	     -7.49999987	     -2.94050061	      3.58285805	     -3.79272391	     34.19202390	      8.48182119	     66.88448360	    116.58656093	    100.82625306	     40.65393066	      1.05201390	     64.45926649	    121.08040203	    109.23312258
      2.63333330	     -3.17437116	     -1.47259602	      3.75713818	      0.79185874	      0.89273566	      0.02147585	      3.36889519	     -8.57338290	    -10.54642658	      5.23453183	      0.09135982	      9.31913280	     -6.86720889	     -7.49999987	      4.76815246	    -11.52926331	     -5.14092384	      8.99759533	      0.15703766	      5.82596777	    -10.02314792	     -7.49999987	     -2.94470609	      3.58336767	     -3.79256665	     34.19431815	      8.47976447	     66.88082248	    116.58736842	    100.82621077	     40.65149237	      1.05187481	     64.46019168	    121.08148386	    109.23285734
      2.65000000	     -3.15702174	     -1.45974138	      3.75797020	      0.78510957	      0.89192556	      0.02444568	      3.36868359	     -8.56740861	    -10.54771389	      5.22881442	      0.09126003	      9.31902578	     -6.86679545	     -7.49999987	      4.79924467	    -11.53143003	     -5.14220703	      8.98614516	      0.15683782	      5.82538207	    -10.02311943	     -7.49999987	     -2.93373434	      3.59409922	     -3.79985741	     34.19374310	      8.47955222	     66.87671672	    116.58909703	    100.82604866	     40.65121192	      1.06082957	     64.46272777	    121.08367325	    109.23265524
      2.66666670	     -3.33041380	     -1.51312511	      3.87616763	      0.78576752	      0.89171539	      0.02411357	      3.50874621	     -8.52293199	    -10.60107068	      5.12072018	      0.08937343	      9.26432433	     -6.92823717	     -7.49999987	      5.09593037	    -11.59181945	     -4.96308509	      9.01865644	      0.15740525	      5.61095575	    -10.11617042	     -7.49999987	     -2.68720632	      3.58461793	     -3.99791236	     33.95929448	      8.86860534	     66.05626647	    116.53855338	    100.75895221	     40.83475383	      1.11313887	     64.40788414	    121.14809578	    108.99771753
      2.68333330	     -3.29592913	     -1.48907757	      3.83285014	      0.79107179	      0.89232796	      0.02087661	      3.45162101	     -8.57426948	    -10.57396808	      5.14176654	      0.08974076	      9.26321050	     -6.91446110	     -7.49999987	      4.98758069	    -11.57325222	     -4.92284455	      9.04194978	      0.15781179	      5.58173245	    -10.08069225	     -7.49999987	     -2.56032914	      3.63718553	     -4.04268773	     33.93300249	      8.85819846	     66.10715918	    116.58301659	    100.76263774	     40.83400975	      1.17784149	     64.42935623	    121.15245704	    108.99821106
      2.70000000	     -3.29273240	     -1.47094993	      3.88046203	      0.78633792	      0.89448428	      0.01852504	      3.44375902	     -8.62317247	    -10.62990716	      5.12660736	      0.08947618	      9.32503372	     -6.92838182	     -7.49999987	      4.97077090	    -11.54796566	     -4.80058242	      9.01347483	      0.15731481	      5.52923385	     -9.94544032	     -7.49999987	     -2.61797070	      3.61699755	     -4.19451461	     34.10606173	      8.43235201	     66.72610720	    116.87517902	    100.80978748	     40.78064907	      1.41096490	     64.58385045	    120.79295582	    109.01430214
      2.71666670	     -3.26254873	     -1.43400656	      3.88933720	      0.78526053	      0.89449810	      0.01829046	      3.46456119	     -8.70816780	    -10.70421561	      5.17698894	      0.09035550	      9.34305163	     -6.89655216	     -7.49999987	      5.00326244	    -11.49878337	     -4.70032165	      9.12839952	      0.15932063	      5.59295676	     -9.90770746	     -7.49999987	     -2.85243209	      3.59674985	     -4.28149257	     34.63122845	      8.12433378	     67.18565631	    117.14782841	    100.38845874	     41.42033690	      1.62785227	     65.02017433	    120.39066411	    109.17036316
      2.73333330	     -3.23972120	     -1.40381804	      3.89635101	      0.78641637	      0.89457264	      0.01867355	      3.47385829	     -8.77992681	    -10.71357767	      5.20157583	      0.09078462	      9.28069616	     -6.99141245	     -7.49999987	      5.00059846	    -11.44926451	     -4.71182520	      9.15801157	      0.15983745	      5.57025241	     -9.88306676	     -7.49999987	     -2.87175145	      3.60358068	     -4.33562632	     34.64715298	      8.17093968	     67.59062767	    117.29165804	    100.63531745	     41.43995814	      1.70829956	     64.95478037	    120.19476819	    109.28941751
      2.75000000	     -3.26106820	     -1.37158225	      3.94685421	      0.78531184	      0.89434282	      0.01834724	      3.53358130	     -8.85659904	    -10.83395862	      5.21981194	      0.09110290	      9.31857501	     -6.94382143	     -7.49999987	      5.09059867	    -11.39579850	     -4.64043890	      9.24018564	      0.16127166	      5.50100861	     -9.96556417	     -7.49999987	     -2.93024129	      3.60997681	     -4.44462740	     34.86946536	      8.21572976	     68.13848175	    117.36430081	    100.28597861	     41.53233525	      1.72467581	     65.08526427	    120.18897584	    109.56667552
